<svg width="30" height="30" viewBox="0 0 30 30" fill="none" xmlns="http://www.w3.org/2000/svg">
<rect width="30" height="30" rx="15" fill="black"/>
<path d="M14.9968 8.44184C17.1333 8.44184 17.3841 8.45137 18.2286 8.48948C19.0095 8.52441 19.4317 8.65462 19.7143 8.76578C20.0889 8.91187 20.3556 9.08337 20.6349 9.36284C20.9143 9.64232 21.0889 9.90909 21.2317 10.2838C21.3397 10.5665 21.473 10.9889 21.5079 11.7701C21.546 12.6149 21.5556 12.8658 21.5556 15.0032C21.5556 17.1405 21.546 17.3914 21.5079 18.2362C21.473 19.0175 21.3429 19.4399 21.2317 19.7225C21.0857 20.0973 20.9143 20.364 20.6349 20.6435C20.3556 20.923 20.0889 21.0977 19.7143 21.2406C19.4317 21.3486 19.0095 21.4819 18.2286 21.5169C17.3841 21.555 17.1333 21.5645 14.9968 21.5645C12.8603 21.5645 12.6095 21.555 11.7651 21.5169C10.9841 21.4819 10.5619 21.3517 10.2794 21.2406C9.90476 21.0945 9.6381 20.923 9.35873 20.6435C9.07937 20.364 8.90476 20.0973 8.7619 19.7225C8.65397 19.4399 8.52063 19.0175 8.48571 18.2362C8.44762 17.3914 8.4381 17.1405 8.4381 15.0032C8.4381 12.8658 8.44762 12.6149 8.48571 11.7701C8.52063 10.9889 8.65079 10.5665 8.7619 10.2838C8.90794 9.90909 9.07937 9.64232 9.35873 9.36284C9.6381 9.08337 9.90476 8.90869 10.2794 8.76578C10.5619 8.6578 10.9841 8.52441 11.7651 8.48948C12.6095 8.44819 12.8635 8.44184 14.9968 8.44184ZM14.9968 7C12.8254 7 12.5524 7.00953 11.6984 7.04764C10.8476 7.08575 10.2667 7.22231 9.75873 7.41921C9.23175 7.62247 8.7873 7.89877 8.34286 8.34339C7.89841 8.78801 7.6254 9.23581 7.41905 9.75983C7.22222 10.268 7.08571 10.8491 7.04762 11.7035C7.00952 12.5546 7 12.8277 7 15C7 17.1723 7.00952 17.4454 7.04762 18.2997C7.08571 19.1509 7.22222 19.732 7.41905 20.2434C7.62222 20.7705 7.89841 21.2152 8.34286 21.6598C8.7873 22.1044 9.23492 22.3775 9.75873 22.584C10.2667 22.7809 10.8476 22.9174 11.7016 22.9555C12.5556 22.9936 12.8254 23.0032 15 23.0032C17.1746 23.0032 17.4444 22.9936 18.2984 22.9555C19.1492 22.9174 19.7302 22.7809 20.2413 22.584C20.7683 22.3807 21.2127 22.1044 21.6571 21.6598C22.1016 21.2152 22.3746 20.7674 22.581 20.2434C22.7778 19.7352 22.9143 19.154 22.9524 18.2997C22.9905 17.4454 23 17.1755 23 15C23 12.8245 22.9905 12.5546 22.9524 11.7003C22.9143 10.8491 22.7778 10.268 22.581 9.75665C22.3778 9.22946 22.1016 8.78484 21.6571 8.34021C21.2127 7.89559 20.7651 7.62247 20.2413 7.41604C19.7333 7.21913 19.1524 7.08257 18.2984 7.04446C17.4413 7.00953 17.1683 7 14.9968 7Z" fill="white"/>
<path d="M14.9969 10.8936C12.7302 10.8936 10.8889 12.7324 10.8889 15.0031C10.8889 17.2739 12.727 19.1127 14.9969 19.1127C17.2667 19.1127 19.1048 17.2739 19.1048 15.0031C19.1048 12.7324 17.2667 10.8936 14.9969 10.8936ZM14.9969 17.6677C13.5239 17.6677 12.3302 16.4735 12.3302 14.9999C12.3302 13.5263 13.5239 12.3322 14.9969 12.3322C16.4699 12.3322 17.6635 13.5263 17.6635 14.9999C17.6635 16.4735 16.4699 17.6677 14.9969 17.6677Z" fill="white"/>
<path d="M19.2671 11.6878C19.7968 11.6878 20.2262 11.2583 20.2262 10.7286C20.2262 10.1989 19.7968 9.76953 19.2671 9.76953C18.7374 9.76953 18.308 10.1989 18.308 10.7286C18.308 11.2583 18.7374 11.6878 19.2671 11.6878Z" fill="white"/>
</svg>
