<svg width="17" height="21" viewBox="0 0 17 21" fill="none" xmlns="http://www.w3.org/2000/svg">
<path fill-rule="evenodd" clip-rule="evenodd" d="M11 4.5C11 5.88071 9.88071 7 8.5 7C7.11929 7 6 5.88071 6 4.5C6 3.11929 7.11929 2 8.5 2C9.88071 2 11 3.11929 11 4.5ZM13 4.5C13 6.98528 10.9853 9 8.5 9C6.01472 9 4 6.98528 4 4.5C4 2.01472 6.01472 0 8.5 0C10.9853 0 13 2.01472 13 4.5ZM2.68806 19L4.48806 13H12.5119L14.3119 19H2.68806ZM3 11H14L16.4 19L17 21H14.9119H2.08806H0L0.6 19L3 11Z" fill="black"/>
</svg>
