<svg width="30" height="30" viewBox="0 0 30 30" fill="none" xmlns="http://www.w3.org/2000/svg">
<rect width="30" height="30" rx="15" fill="black"/>
<path fill-rule="evenodd" clip-rule="evenodd" d="M23.5764 10.7435C23.7099 10.3241 23.5764 10.0191 22.9855 10.0191H21.0219C20.5263 10.0191 20.2975 10.286 20.1641 10.5719C20.1641 10.5719 19.1537 13.012 17.743 14.5943C17.2855 15.0518 17.0758 15.2043 16.828 15.2043C16.6945 15.2043 16.523 15.0518 16.523 14.6324V10.7244C16.523 10.2288 16.3705 10 15.9511 10H12.8628C12.5578 10 12.3672 10.2288 12.3672 10.4575C12.3672 10.9341 13.0725 11.0485 13.1488 12.3829V15.2806C13.1488 15.9096 13.0344 16.024 12.7866 16.024C12.1193 16.024 10.499 13.5649 9.52672 10.7625C9.33609 10.2097 9.14546 10 8.64981 10H6.66722C6.09532 10 6 10.2669 6 10.5528C6 11.0675 6.66722 13.6602 9.10733 17.0916C10.7277 19.4364 13.0344 20.6946 15.1123 20.6946C16.3705 20.6946 16.523 20.4086 16.523 19.932V18.1591C16.523 17.5872 16.6374 17.4919 17.0377 17.4919C17.3236 17.4919 17.8384 17.6444 19.0012 18.7691C20.3357 20.1036 20.5644 20.7136 21.3079 20.7136H23.2714C23.8433 20.7136 24.1102 20.4277 23.9577 19.8748C23.7861 19.322 23.138 18.5213 22.2992 17.5682C21.8417 17.0344 21.1554 16.4434 20.9457 16.1575C20.6597 15.7762 20.736 15.6237 20.9457 15.2806C20.9266 15.2806 23.3286 11.8873 23.5764 10.7435Z" fill="white"/>
</svg>
